<?xml version="1.0" standalone="no"?>
<!DOCTYPE svg PUBLIC "-//W3C//DTD SVG 20010904//EN"
 "http://www.w3.org/TR/2001/REC-SVG-20010904/DTD/svg10.dtd">
<svg version="1.0" xmlns="http://www.w3.org/2000/svg"
 width="602.000000pt" height="373.000000pt" viewBox="0 0 602.000000 373.000000"
 preserveAspectRatio="xMidYMid meet">

<g transform="translate(0.000000,373.000000) scale(0.100000,-0.100000)"
fill="#000000" stroke="none">
<path d="M1126 3364 c-49 -33 -67 -75 -56 -132 4 -23 15 -51 24 -61 16 -18 15
-20 -34 -50 -42 -26 -56 -42 -77 -89 -22 -50 -25 -66 -20 -129 l5 -73 -52 0
c-80 0 -140 -25 -206 -87 -81 -74 -104 -125 -97 -211 2 -37 13 -100 22 -141
15 -63 24 -82 63 -124 71 -75 88 -81 242 -87 l134 -5 8 -39 c5 -21 18 -56 30
-77 l21 -38 -22 -50 c-11 -27 -21 -67 -21 -88 0 -43 31 -117 62 -151 l22 -22
-27 -28 c-36 -38 -57 -92 -57 -150 0 -45 18 -84 74 -158 7 -8 1 -24 -18 -48
-63 -84 -68 -160 -16 -253 34 -61 36 -75 13 -94 -70 -59 -67 -228 6 -293 28
-25 27 -35 -8 -76 l-29 -35 -34 18 c-61 33 -206 147 -265 210 -161 173 -285
393 -337 598 -25 100 -39 272 -32 391 6 112 37 287 61 345 17 40 12 57 -21 72
-62 28 -114 -6 -116 -75 0 -21 -6 -46 -13 -54 -36 -43 -61 -314 -46 -484 33
-349 173 -647 426 -902 120 -121 212 -187 370 -264 338 -166 681 -198 1020
-95 97 30 293 119 360 165 197 132 368 323 480 535 67 125 79 153 117 275 123
389 51 869 -186 1239 -51 79 -87 111 -127 111 -27 0 -69 -39 -69 -65 0 -6 25
-45 56 -85 77 -102 148 -249 189 -388 45 -157 57 -250 53 -416 l-3 -140 -380
2 c-209 2 -394 5 -411 8 -27 5 -35 13 -49 50 -9 25 -28 58 -41 73 -21 25 -22
30 -9 41 8 7 15 18 15 25 0 7 12 29 26 51 25 36 26 43 22 150 -3 106 -5 115
-40 183 l-37 72 31 43 c53 76 48 155 -15 224 -18 19 -19 26 -9 40 36 51 55
100 56 148 1 44 -4 60 -32 99 -30 42 -32 51 -23 78 42 120 -46 259 -192 302
-39 11 -42 15 -49 55 -28 166 -265 244 -341 112 -10 -17 -21 -59 -24 -92 l-6
-60 -33 0 c-29 0 -33 4 -39 33 -32 147 -184 232 -289 161z m130 -138 c44 -44
43 -56 -6 -56 -35 0 -40 3 -40 23 0 12 -3 32 -6 45 -9 32 12 28 52 -12z m412
18 c61 -36 64 -49 66 -255 1 -178 2 -190 22 -210 19 -18 25 -19 45 -9 47 24
58 50 60 135 1 44 4 92 8 107 6 26 7 26 38 13 38 -16 73 -68 73 -108 0 -15 -7
-44 -15 -64 -20 -48 -19 -70 6 -83 27 -15 59 -69 59 -101 0 -14 -11 -38 -25
-53 -21 -23 -32 -26 -90 -26 -75 0 -86 -10 -61 -59 20 -37 63 -61 110 -61 28
0 38 -6 55 -34 28 -45 27 -100 -2 -130 -13 -13 -47 -29 -75 -36 -74 -17 -69
-51 13 -93 18 -9 42 -36 58 -65 24 -45 27 -60 27 -155 0 -58 -3 -113 -6 -122
-8 -21 -49 -41 -101 -50 -29 -4 -43 -12 -43 -22 0 -15 48 -66 91 -94 13 -9 35
-38 48 -64 18 -37 22 -53 15 -77 -14 -47 -56 -73 -114 -71 l-49 1 15 -36 c8
-21 22 -43 31 -49 26 -20 81 -26 113 -13 28 12 83 66 105 105 10 17 12 17 44
0 42 -21 250 -34 564 -35 119 0 217 -2 217 -4 0 -25 -60 -198 -95 -272 -90
-193 -243 -382 -410 -507 -236 -177 -579 -265 -883 -227 -100 13 -251 50 -320
80 -56 24 -57 30 -14 87 16 22 36 35 60 39 56 10 91 32 98 59 11 45 0 55 -55
48 -68 -8 -98 2 -121 40 -31 50 -27 111 11 158 25 32 37 39 66 39 70 0 114 46
99 106 -6 22 -11 25 -29 19 -12 -4 -39 -9 -59 -12 -32 -4 -42 0 -67 24 -18 19
-31 45 -36 72 -6 38 -4 48 22 84 21 30 42 47 78 60 68 25 97 53 93 92 l-3 30
-66 -3 c-66 -3 -67 -3 -98 35 -39 48 -41 93 -5 145 20 29 38 41 79 53 76 22
115 78 86 124 -7 11 -17 12 -57 2 -58 -15 -92 -3 -117 38 -28 47 -22 76 25
120 38 37 40 43 30 66 -6 14 -16 25 -22 25 -16 0 -50 62 -50 91 0 32 19 39
101 39 112 0 203 47 273 142 119 158 108 316 -17 269 -21 -8 -26 -18 -32 -70
-9 -81 -40 -139 -93 -176 l-44 -30 -194 -3 -194 -4 11 26 c25 54 -25 79 -63
31 -30 -38 -75 -58 -114 -50 -41 7 -64 38 -64 87 0 35 3 38 40 49 82 25 117
91 66 124 -23 15 -29 15 -81 -1 -48 -15 -58 -16 -65 -4 -16 25 22 70 85 100
76 38 233 60 294 42 21 -7 67 -12 103 -12 85 0 141 28 185 94 40 59 42 89 8
104 -40 18 -63 14 -81 -14 -24 -35 -65 -54 -119 -54 -61 0 -103 23 -121 66
-17 40 -11 69 19 102 33 36 84 44 243 36 l144 -7 0 -85 c0 -74 3 -89 22 -109
25 -26 55 -30 84 -9 18 13 19 30 22 225 2 116 6 211 9 211 3 0 17 -7 31 -16z"/>
<path d="M1320 2627 c-90 -46 -31 -185 62 -146 29 12 58 54 58 84 0 22 -54 75
-77 75 -10 0 -29 -6 -43 -13z"/>
<path d="M1696 2264 c-9 -8 -16 -25 -16 -37 0 -50 -12 -67 -51 -77 -47 -13
-52 -38 -14 -75 73 -74 185 16 185 148 0 31 -4 39 -26 47 -36 14 -60 12 -78
-6z"/>
<path d="M1589 1958 c-7 -14 -10 -46 -6 -89 9 -109 47 -159 118 -159 58 0 114
67 95 116 -5 12 -14 14 -45 9 l-38 -6 -5 64 c-3 36 -9 70 -12 76 -4 6 -27 11
-51 11 -35 0 -47 -4 -56 -22z"/>
<path d="M1604 1435 c-14 -22 -16 -45 -12 -149 4 -112 7 -128 32 -170 30 -52
85 -86 138 -86 43 0 96 33 104 65 10 39 -11 55 -72 55 -77 0 -84 14 -84 162 0
129 -8 148 -60 148 -21 0 -35 -8 -46 -25z"/>
<path d="M2313 1272 c-22 -23 -15 -59 18 -86 26 -23 40 -26 101 -26 64 0 72 2
99 29 30 31 38 74 17 88 -22 14 -220 10 -235 -5z"/>
<path d="M2172 1018 c-32 -32 1 -101 54 -114 43 -11 107 3 126 26 21 26 23 63
6 77 -21 17 -172 25 -186 11z"/>
<path d="M1970 833 c-25 -2 -49 -8 -53 -12 -11 -11 15 -72 42 -96 58 -51 165
0 159 75 -3 35 -3 35 -53 36 -27 1 -70 -1 -95 -3z"/>
<path d="M1597 812 c-27 -30 -20 -61 22 -103 51 -51 89 -53 137 -5 19 19 34
39 34 44 0 16 -30 42 -48 42 -9 0 -30 9 -47 20 -38 25 -77 26 -98 2z"/>
<path d="M2345 2980 c-21 -40 -19 -63 8 -87 33 -31 62 -43 101 -43 29 0 38 5
49 28 22 45 2 88 -55 118 -46 24 -85 18 -103 -16z"/>
<path d="M4111 1786 c-8 -9 -11 -73 -9 -207 l3 -194 23 -3 c49 -7 52 7 52 204
0 153 -3 185 -16 198 -19 20 -38 20 -53 2z"/>
<path d="M4585 1791 c-105 -27 -155 -94 -155 -203 1 -132 65 -200 197 -207 82
-4 150 11 188 41 22 17 25 27 25 89 0 65 -2 70 -26 79 -28 11 -123 13 -148 4
-9 -3 -16 -17 -16 -30 0 -21 5 -23 53 -26 51 -3 52 -4 55 -36 3 -29 -1 -34
-32 -47 -19 -8 -54 -15 -76 -15 -87 0 -134 53 -134 151 -1 88 47 141 128 143
38 1 49 -5 89 -41 26 -24 51 -43 56 -43 14 0 41 29 41 44 0 20 -39 65 -71 81
-34 18 -132 27 -174 16z"/>
<path d="M4936 1784 c-13 -13 -16 -45 -16 -198 0 -197 3 -211 52 -204 l23 3 3
194 c2 194 -2 221 -34 221 -7 0 -20 -7 -28 -16z"/>
<path d="M3361 1776 c-8 -9 -11 -72 -9 -202 l3 -189 26 -3 c37 -4 48 15 51 88
l3 65 75 6 c94 8 137 29 157 77 27 64 4 125 -59 158 -38 19 -231 20 -247 0z
m215 -71 c39 -53 0 -99 -84 -100 l-57 0 -3 48 c-4 68 9 80 77 75 37 -4 58 -11
67 -23z"/>
<path d="M4273 1774 c-9 -24 10 -49 38 -49 20 0 25 6 27 33 3 30 1 32 -28 32
-19 0 -33 -6 -37 -16z"/>
<path d="M5496 1774 c-9 -9 -16 -32 -16 -55 0 -33 -4 -41 -25 -49 -14 -5 -25
-14 -25 -20 0 -6 11 -16 25 -22 24 -11 25 -15 25 -103 0 -78 3 -96 21 -119 17
-22 28 -26 69 -26 61 0 80 7 80 31 0 15 -7 19 -33 19 -49 0 -57 14 -57 106 l0
82 30 6 c41 8 42 43 3 48 -25 3 -28 7 -31 48 -4 61 -35 86 -66 54z"/>
<path d="M3794 1671 c-28 -12 -72 -66 -80 -97 -4 -14 -4 -46 -1 -71 4 -35 13
-54 41 -81 33 -34 41 -37 105 -40 83 -5 129 17 155 72 32 68 17 144 -39 196
-21 20 -38 25 -93 27 -37 2 -76 -1 -88 -6z m111 -47 c22 -9 45 -57 45 -94 0
-102 -103 -139 -148 -53 -42 77 27 176 103 147z"/>
<path d="M4274 1667 c-2 -7 -3 -74 -2 -148 3 -131 3 -134 26 -137 46 -7 52 11
52 147 0 85 -4 131 -12 139 -16 16 -57 15 -64 -1z"/>
<path d="M5154 1666 c-101 -44 -108 -207 -12 -266 46 -28 140 -28 186 0 35 22
71 87 72 130 0 44 -42 113 -80 132 -41 21 -122 23 -166 4z m123 -51 c27 -19
46 -77 38 -115 -8 -35 -48 -70 -80 -70 -61 0 -103 87 -71 149 27 50 72 65 113
36z"/>
<path d="M2775 617 c-46 -46 -47 -86 -5 -129 27 -26 36 -30 67 -25 53 9 83 42
83 92 0 49 -28 81 -78 91 -27 6 -37 1 -67 -29z"/>
</g>
</svg>
