<?xml version="1.0" standalone="no"?>
<!DOCTYPE svg PUBLIC "-//W3C//DTD SVG 20010904//EN"
 "http://www.w3.org/TR/2001/REC-SVG-20010904/DTD/svg10.dtd">
<svg version="1.0" xmlns="http://www.w3.org/2000/svg"
 width="512.000000pt" height="512.000000pt" viewBox="0 0 512.000000 512.000000"
 preserveAspectRatio="xMidYMid meet">

<g transform="translate(0.000000,512.000000) scale(0.100000,-0.100000)"
fill="#000000" stroke="none">
<path d="M2470 5109 c-254 -42 -492 -192 -641 -403 -52 -74 -62 -115 -34 -147
15 -15 13 -24 -12 -98 -23 -67 -32 -81 -49 -81 -51 0 -62 -25 -158 -335 l-92
-300 -295 -5 c-276 -5 -297 -7 -351 -28 -132 -53 -234 -162 -272 -291 -13 -43
-16 -104 -16 -288 0 -209 2 -240 20 -294 64 -188 234 -309 435 -309 l60 0 1
-63 c2 -80 33 -162 84 -220 22 -25 40 -48 40 -51 0 -11 -141 -341 -148 -347
-4 -4 -38 -2 -75 3 -164 25 -319 -57 -392 -205 -35 -72 -44 -173 -23 -263 l15
-62 -52 -49 c-148 -139 -161 -343 -33 -510 l50 -65 -31 -70 c-47 -104 -70
-214 -83 -401 -13 -180 -11 -190 34 -216 37 -21 76 -7 94 34 l14 35 439 0 439
0 12 -30 c22 -53 69 -65 114 -29 l26 20 0 546 0 546 31 -7 c17 -3 37 -6 43 -6
6 0 20 -30 30 -66 11 -37 34 -89 52 -116 l33 -49 3 -419 3 -418 24 -26 c41
-43 99 -30 120 27 l11 27 620 0 621 0 11 -30 c17 -52 66 -65 110 -30 l25 19 5
423 5 423 35 51 c19 28 43 81 53 117 18 62 21 65 54 71 19 3 37 3 40 0 4 -3 7
-247 9 -542 3 -530 4 -537 24 -560 38 -39 98 -25 116 28 l11 30 440 0 441 0
14 -35 c18 -41 57 -55 94 -34 45 26 47 36 34 216 -13 187 -36 297 -83 401
l-31 70 50 65 c74 97 101 194 82 299 -16 85 -52 153 -115 211 l-52 49 15 62
c21 90 12 191 -23 263 -73 148 -228 230 -392 205 -37 -5 -71 -7 -75 -3 -7 6
-148 336 -148 347 0 3 18 26 40 51 50 57 81 140 83 220 l2 63 60 0 c201 0 371
121 435 309 18 54 20 85 20 296 0 211 -2 242 -20 296 -45 134 -134 226 -270
281 -51 21 -75 23 -349 28 l-295 5 -121 395 -122 395 134 201 c148 221 160
251 125 313 -10 19 -34 43 -53 53 -31 17 -68 18 -554 17 -286 -1 -545 -5 -575
-10z m-355 -1186 c-4 -10 -10 -53 -13 -95 l-5 -78 -223 0 c-123 0 -224 3 -224
7 0 3 8 30 17 60 l17 53 137 0 c76 0 145 3 154 6 8 4 22 19 31 35 13 26 19 29
65 29 45 0 50 -2 44 -17z m995 2 c0 -8 10 -23 22 -35 20 -18 35 -20 163 -20
l141 0 17 -53 c9 -30 17 -57 17 -60 0 -4 -103 -7 -229 -7 l-229 0 -5 73 c-3
39 -8 82 -12 95 -7 21 -5 22 54 22 47 0 61 -3 61 -15z m-279 -44 c18 -14 23
-31 27 -80 l4 -61 -307 0 -307 0 4 61 c7 101 2 99 303 99 231 0 255 -2 276
-19z m239 -539 c0 -10 10 -28 23 -40 21 -20 35 -22 177 -24 l155 -3 23 -65
c32 -88 62 -208 62 -247 0 -31 -6 -36 -119 -103 -65 -38 -121 -70 -125 -70 -3
0 -24 20 -47 45 -23 24 -67 57 -98 72 -49 24 -68 28 -146 28 -103 0 -153 -19
-229 -87 -43 -37 -47 -39 -83 -29 -49 14 -157 14 -206 0 -36 -10 -40 -8 -83
29 -76 68 -126 87 -229 87 -78 0 -97 -4 -146 -28 -31 -15 -75 -48 -98 -72 -23
-25 -44 -45 -47 -45 -3 0 -59 32 -126 71 l-120 72 6 52 c6 55 46 202 71 261
l14 34 576 0 c357 0 583 4 595 10 10 5 23 23 28 40 l11 30 80 0 c72 0 81 -2
81 -18z m-1837 -339 l-233 -3 -2 -163 -2 -162 -3 155 c-2 85 -1 160 1 167 4
10 55 13 238 11 l233 -3 -232 -2z m2932 -156 l1 -157 -3 155 -4 155 -252 3
-252 3 255 -1 255 0 0 -158z m-1963 -69 c48 -14 103 -73 119 -128 32 -105 -48
-217 -161 -228 -140 -13 -242 135 -180 262 41 86 127 123 222 94z m878 -22
c45 -29 80 -97 80 -151 0 -80 -64 -161 -143 -181 -80 -19 -171 29 -208 111
-23 49 -24 85 -4 133 47 112 176 153 275 88z m-1373 -61 l101 -60 4 -65 c6
-84 41 -153 108 -213 72 -65 144 -90 240 -85 95 6 155 32 218 95 66 66 94 130
100 225 5 84 8 88 82 88 74 0 77 -4 82 -88 6 -94 34 -159 98 -222 64 -65 127
-93 219 -98 62 -3 87 0 136 19 120 45 215 177 215 297 l0 48 106 62 c59 34
109 60 112 58 4 -5 -63 -642 -74 -698 l-6 -28 -169 0 -169 0 -53 43 c-132 107
-312 131 -464 62 l-53 -24 -47 22 c-41 19 -65 22 -163 22 -133 -1 -189 -18
-278 -85 l-52 -40 -164 0 -164 0 -6 38 c-6 38 -60 517 -71 631 -3 35 -2 62 3
60 4 -2 54 -31 109 -64z m-267 -7 c0 -7 12 -120 26 -251 15 -130 25 -240 22
-242 -2 -3 -27 2 -55 10 -42 13 -64 29 -121 90 -80 85 -96 122 -90 205 7 92
55 153 146 186 47 17 72 17 72 2z m2316 -3 c87 -26 144 -107 144 -205 0 -67
-16 -103 -79 -175 -58 -66 -108 -100 -162 -110 l-35 -6 22 188 c12 103 25 218
29 256 7 74 7 74 81 52z m-2297 -641 c61 -7 61 -7 61 -40 0 -26 -7 -36 -34
-53 -54 -34 -125 -117 -156 -184 -53 -112 -57 -246 -12 -363 l19 -52 -129 -88
c-131 -91 -145 -108 -136 -159 5 -21 -4 -31 -62 -71 -67 -45 -68 -46 -94 -29
-17 11 -35 15 -52 11 -32 -8 -121 -73 -190 -138 l-51 -48 -20 23 c-54 58 -71
133 -49 209 12 44 27 65 80 116 82 78 93 112 71 207 -22 94 -19 143 10 202 27
54 74 93 138 113 29 9 57 9 120 0 73 -10 88 -9 125 5 23 10 51 29 61 44 15 21
100 213 142 318 l8 22 45 -19 c24 -11 72 -23 105 -26z m2416 -109 c74 -180 88
-203 143 -227 40 -18 51 -19 127 -8 65 9 92 9 122 0 67 -21 109 -55 137 -111
30 -61 33 -109 11 -204 -22 -95 -11 -129 71 -207 53 -51 68 -72 80 -116 22
-76 5 -151 -49 -209 l-20 -22 -62 57 c-34 31 -195 149 -357 261 l-295 204 19
51 c63 163 30 345 -86 473 -26 29 -62 62 -81 73 -28 18 -35 28 -35 54 0 33 0
33 61 39 33 4 79 15 102 26 23 10 45 16 48 12 3 -3 32 -69 64 -146z m-968 55
c37 -19 75 -48 97 -74 19 -24 62 -61 95 -82 34 -21 61 -41 61 -44 -1 -12 -122
-92 -161 -106 -63 -22 -158 -20 -214 5 -26 11 -82 48 -126 81 -46 34 -90 60
-104 60 -14 0 -58 -26 -104 -60 -44 -33 -100 -70 -126 -81 -56 -25 -151 -27
-214 -5 -39 14 -160 94 -161 106 0 3 26 22 58 42 31 21 79 60 106 87 66 68
135 95 232 89 50 -3 85 -12 120 -30 74 -39 76 -39 159 3 69 35 86 39 150 39
60 0 82 -5 132 -30z m-1094 -141 c-18 -37 -13 -107 11 -144 23 -34 128 -111
201 -146 109 -52 252 -55 360 -9 27 12 76 41 110 65 l62 44 54 -41 c190 -144
409 -134 612 27 83 66 108 139 72 209 l-15 28 88 -4 c71 -3 100 -10 145 -31
184 -91 228 -346 83 -490 -50 -50 -106 -77 -194 -92 -41 -7 -80 -19 -88 -27
-7 -7 -18 -46 -24 -86 -12 -86 -34 -133 -87 -185 -51 -52 -102 -77 -182 -89
-36 -5 -74 -17 -83 -25 -9 -9 -27 -44 -38 -79 -27 -80 -82 -164 -151 -231 -62
-60 -75 -70 -143 -106 l-50 -26 -60 32 c-120 63 -236 205 -280 343 -22 68 -39
82 -118 93 -80 11 -130 36 -185 93 -51 52 -73 102 -83 187 -5 35 -15 70 -23
78 -8 8 -48 21 -89 28 -126 22 -207 79 -254 180 -33 70 -33 180 0 250 58 124
152 183 298 184 l66 1 -15 -31z"/>
<path d="M1839 3150 c-100 -53 -130 -148 -58 -186 37 -18 69 -10 105 27 l28
29 237 0 c224 0 238 1 263 21 33 26 36 79 6 109 -19 19 -33 20 -282 20 -239
-1 -266 -3 -299 -20z"/>
<path d="M2700 3150 c-30 -30 -27 -83 6 -109 25 -20 39 -21 264 -21 228 0 238
-1 256 -21 35 -38 72 -52 105 -38 58 23 65 80 17 134 -63 72 -76 75 -368 75
-247 0 -261 -1 -280 -20z"/>
</g>
</svg>
