<?xml version="1.0" standalone="no"?>
<!DOCTYPE svg PUBLIC "-//W3C//DTD SVG 20010904//EN"
 "http://www.w3.org/TR/2001/REC-SVG-20010904/DTD/svg10.dtd">
<svg version="1.0" xmlns="http://www.w3.org/2000/svg"
 width="336.000000pt" height="358.000000pt" viewBox="0 0 336.000000 358.000000"
 preserveAspectRatio="xMidYMid meet">

<g transform="translate(0.000000,358.000000) scale(0.100000,-0.100000)"
fill="#000000" stroke="none">
<path d="M1102 3383 c-12 -2 -38 -19 -57 -37 -32 -31 -35 -38 -35 -90 0 -37 6
-66 17 -83 17 -25 17 -26 -7 -42 -93 -59 -143 -160 -121 -246 6 -24 11 -46 11
-49 0 -3 -20 -6 -43 -6 -102 0 -226 -66 -278 -148 -49 -77 -54 -113 -34 -222
28 -154 59 -207 147 -256 50 -27 61 -29 184 -32 l132 -4 5 -34 c3 -19 16 -54
28 -79 l22 -44 -22 -50 c-11 -27 -21 -65 -21 -84 0 -45 25 -105 58 -139 l26
-28 -22 -22 c-33 -36 -62 -109 -62 -158 0 -43 14 -75 63 -144 19 -25 19 -26
-17 -83 -31 -50 -36 -67 -36 -117 0 -49 6 -71 34 -122 33 -60 34 -63 16 -79
-10 -9 -28 -39 -40 -68 -37 -84 -23 -152 53 -259 10 -15 7 -23 -23 -52 l-35
-34 -70 42 c-99 58 -314 274 -390 390 -150 230 -207 422 -208 696 -1 173 14
287 53 411 19 57 19 64 4 80 -24 27 -70 34 -99 15 -76 -50 -125 -494 -81 -731
117 -622 585 -1080 1208 -1184 157 -26 278 -27 427 -1 297 51 562 182 757 375
260 258 404 548 450 906 16 128 16 143 0 281 -9 81 -28 188 -42 240 -74 278
-241 568 -328 568 -27 0 -66 -39 -66 -66 0 -11 26 -55 59 -98 120 -159 203
-375 236 -610 16 -115 18 -201 7 -276 l-7 -45 -335 -3 c-354 -2 -500 4 -505
22 -2 6 -6 23 -9 38 -3 14 -18 40 -32 58 l-26 31 36 76 c39 81 44 110 32 218
-8 77 -27 134 -57 176 l-19 27 35 58 c44 72 47 125 10 175 -48 66 -49 72 -21
114 32 47 50 109 42 149 -4 17 -20 50 -37 74 -27 38 -30 46 -20 74 24 69 6
151 -46 208 -34 39 -141 100 -172 100 -11 0 -20 16 -29 52 -15 66 -53 113
-116 146 -84 44 -182 29 -223 -34 -9 -14 -19 -56 -22 -92 l-6 -67 -37 -3 c-36
-3 -37 -2 -44 35 -23 127 -133 209 -252 186z m92 -155 c14 -13 26 -32 28 -43
2 -16 -3 -21 -30 -23 -34 -3 -36 -1 -46 56 -7 39 11 43 48 10z m430 7 c52 -39
56 -58 56 -250 0 -147 3 -185 16 -203 22 -31 47 -27 83 13 30 35 31 38 31 136
l0 101 28 -7 c39 -9 81 -53 88 -92 4 -21 0 -50 -10 -76 -22 -59 -21 -66 19
-107 50 -51 56 -96 19 -139 -27 -33 -29 -33 -91 -28 -70 7 -81 -1 -69 -48 8
-32 57 -62 113 -71 54 -8 83 -44 83 -102 0 -32 -6 -45 -30 -65 -16 -14 -47
-28 -70 -32 -22 -4 -42 -11 -46 -16 -11 -19 9 -50 44 -67 20 -9 50 -36 67 -60
30 -43 30 -45 30 -170 l0 -126 -34 -23 c-19 -13 -49 -23 -68 -23 -64 0 -52
-52 22 -95 32 -19 51 -40 69 -78 34 -67 33 -82 -8 -123 -29 -29 -41 -34 -80
-34 -39 0 -46 -3 -46 -19 0 -37 42 -73 91 -78 59 -7 99 14 139 72 17 25 35 45
39 45 5 0 28 -7 52 -16 36 -13 113 -17 407 -21 223 -4 362 -10 362 -16 0 -5
-16 -57 -36 -116 -109 -329 -350 -614 -639 -759 -175 -87 -321 -122 -540 -129
-123 -4 -181 -1 -250 11 -103 19 -272 69 -298 88 -17 13 -16 16 13 59 26 40
36 47 73 53 73 12 118 56 98 95 -9 17 -16 18 -53 9 -63 -14 -111 3 -132 46
-24 50 -20 104 10 147 21 31 32 38 73 43 69 9 103 38 99 85 l-3 36 -63 -4
c-55 -3 -67 0 -87 19 -31 29 -49 83 -40 118 10 41 63 90 116 107 60 20 81 44
77 87 l-3 33 -57 -3 c-74 -5 -93 2 -118 42 -48 79 1 170 103 191 45 9 79 49
75 88 l-3 32 -66 -3 c-58 -3 -70 0 -93 20 -16 14 -29 38 -33 61 -5 34 -2 41
36 77 22 21 41 44 41 51 0 6 -16 29 -35 50 -35 39 -51 78 -42 103 4 9 34 15
99 20 120 9 178 36 251 116 68 76 100 140 105 213 5 68 -7 87 -55 87 -56 0
-73 -15 -73 -64 0 -86 -37 -152 -110 -194 -44 -27 -48 -27 -230 -27 l-185 0 3
36 c5 54 -22 59 -67 15 -50 -49 -83 -60 -127 -41 -37 15 -57 52 -52 93 2 19
14 28 56 44 60 22 87 55 78 93 -9 35 -48 42 -108 21 -27 -9 -53 -14 -58 -11
-38 23 38 104 122 130 80 25 213 33 272 18 65 -17 101 -16 163 2 53 16 106 64
137 123 13 26 13 31 0 51 -24 34 -71 28 -116 -16 -35 -34 -42 -37 -102 -37
-54 -1 -68 3 -89 22 -42 40 -53 77 -34 117 28 59 55 66 239 63 l163 -3 5 -87
c4 -74 9 -90 29 -112 29 -31 54 -33 81 -6 19 19 20 33 20 225 0 189 1 205 18
205 9 0 26 -7 36 -15z"/>
<path d="M1242 2607 c-32 -34 -30 -89 4 -116 79 -62 180 44 109 114 -32 33
-83 34 -113 2z"/>
<path d="M1641 2256 c-6 -8 -15 -33 -19 -57 -6 -36 -12 -44 -39 -53 -43 -15
-53 -27 -42 -53 11 -30 64 -56 98 -48 76 16 148 185 92 215 -28 14 -77 12 -90
-4z"/>
<path d="M1560 1971 c-24 -6 -25 -11 -28 -86 -3 -94 15 -139 65 -168 63 -36
143 10 143 83 0 29 -2 30 -45 30 l-45 0 0 59 c0 83 -21 101 -90 82z"/>
<path d="M1552 1438 c-8 -8 -12 -53 -12 -138 0 -114 2 -131 25 -176 33 -67 86
-98 156 -92 60 6 89 30 89 73 0 38 -14 46 -64 38 -24 -4 -44 0 -61 11 -24 16
-25 19 -25 141 0 99 -3 127 -16 139 -18 19 -75 21 -92 4z"/>
<path d="M2260 1261 c-16 -31 -12 -45 20 -76 66 -63 210 -38 234 41 13 43 -15
54 -134 54 -98 0 -110 -2 -120 -19z"/>
<path d="M2116 1004 c-12 -30 -6 -50 22 -77 24 -23 37 -27 83 -27 45 0 60 4
77 23 24 26 29 66 10 85 -7 7 -45 12 -99 12 -70 0 -88 -3 -93 -16z"/>
<path d="M1943 833 c-76 -5 -90 -18 -69 -66 15 -37 59 -67 96 -67 29 0 77 27
90 49 24 45 5 93 -34 89 -12 -1 -49 -3 -83 -5z"/>
<path d="M1535 801 c-16 -19 -16 -22 1 -58 24 -48 79 -86 114 -78 39 10 81 55
78 84 -2 19 -11 27 -37 34 -19 5 -44 15 -55 23 -29 20 -80 18 -101 -5z"/>
<path d="M2311 2991 c-14 -14 -21 -34 -21 -60 0 -36 3 -40 53 -66 61 -32 101
-29 119 10 15 34 3 70 -35 99 -49 37 -90 43 -116 17z"/>
<path d="M2731 614 c-25 -21 -31 -33 -31 -65 0 -74 69 -111 139 -74 33 16 41
33 41 81 0 76 -88 110 -149 58z"/>
</g>
</svg>
