<?xml version="1.0" standalone="no"?>
<!DOCTYPE svg PUBLIC "-//W3C//DTD SVG 20010904//EN"
 "http://www.w3.org/TR/2001/REC-SVG-20010904/DTD/svg10.dtd">
<svg version="1.0" xmlns="http://www.w3.org/2000/svg"
 width="1024.000000pt" height="1024.000000pt" viewBox="0 0 1024.000000 1024.000000"
 preserveAspectRatio="xMidYMid meet">

<g transform="translate(0.000000,1024.000000) scale(0.100000,-0.100000)"
fill="#000000" stroke="none">
<path d="M4060 5425 c-75 -24 -137 -81 -193 -174 -63 -105 -140 -188 -227
-246 -189 -126 -409 -184 -654 -172 -207 10 -379 71 -505 181 -96 83 -138 101
-241 101 -70 0 -94 -4 -135 -24 -63 -32 -124 -93 -156 -156 -35 -71 -35 -198
0 -270 71 -145 358 -335 617 -409 184 -53 244 -60 479 -60 201 0 231 2 346 26
443 95 789 321 997 651 29 46 62 110 73 143 54 151 -18 322 -165 394 -61 29
-171 36 -236 15z"/>
<path d="M5984 5426 c-140 -44 -235 -188 -221 -335 6 -75 32 -131 115 -256
252 -379 730 -624 1252 -642 406 -14 733 84 1007 302 46 35 98 86 118 112 121
164 64 393 -120 484 -41 20 -65 24 -135 24 -102 0 -144 -17 -240 -100 -77 -66
-196 -127 -306 -156 -113 -29 -310 -36 -434 -15 -309 53 -511 182 -649 411
-55 91 -119 147 -195 170 -60 18 -136 18 -192 1z"/>
<path d="M4810 3515 c-566 -76 -1079 -321 -1466 -703 -104 -102 -128 -156
-122 -277 7 -129 67 -219 183 -271 73 -33 131 -39 205 -20 70 18 104 41 242
164 719 643 1835 642 2548 -2 127 -114 154 -132 229 -152 75 -19 132 -13 206
20 113 51 175 141 183 263 9 134 -23 196 -173 333 -369 338 -806 546 -1335
636 -132 23 -557 28 -700 9z"/>
</g>
</svg>
