<?xml version="1.0" standalone="no"?>
<!DOCTYPE svg PUBLIC "-//W3C//DTD SVG 20010904//EN"
 "http://www.w3.org/TR/2001/REC-SVG-20010904/DTD/svg10.dtd">
<svg version="1.0" xmlns="http://www.w3.org/2000/svg"
 width="512.000000pt" height="512.000000pt" viewBox="0 0 512.000000 512.000000"
 preserveAspectRatio="xMidYMid meet">

<g transform="translate(0.000000,512.000000) scale(0.100000,-0.100000)"
fill="#000000" stroke="none">
<path d="M2386 5109 c-409 -53 -787 -311 -991 -677 -23 -42 -47 -72 -56 -72
-25 0 -46 -30 -73 -102 -60 -158 -89 -343 -84 -523 3 -103 4 -111 26 -120 l22
-10 0 -326 0 -326 -56 -124 c-31 -68 -60 -126 -65 -129 -5 -3 -105 -21 -224
-40 -204 -32 -215 -35 -215 -55 0 -12 45 -298 100 -636 55 -338 99 -619 98
-625 -2 -6 -31 -35 -66 -64 -93 -76 -232 -272 -232 -325 0 -22 320 -340 420
-417 363 -279 761 -446 1225 -514 166 -25 524 -25 690 0 464 68 862 235 1225
514 106 81 420 395 420 419 0 52 -142 249 -233 325 -34 28 -63 56 -65 62 -1 6
43 287 98 625 55 338 100 624 100 636 0 20 -11 23 -215 55 -119 19 -219 37
-224 40 -5 3 -34 61 -65 129 l-56 124 0 328 c0 196 4 329 9 329 42 0 51 81 31
295 -12 127 -39 247 -82 358 -25 64 -36 81 -59 91 -21 9 -43 35 -73 89 -154
270 -414 492 -694 592 -207 74 -432 100 -636 74z m739 -673 c18 -8 38 -23 44
-34 7 -14 11 -149 11 -406 l0 -386 180 0 180 0 40 -36 c22 -20 54 -66 72 -102
30 -61 33 -75 33 -162 0 -83 -3 -102 -27 -150 -69 -139 -236 -227 -381 -199
-29 5 -180 60 -337 122 l-285 112 -95 0 c-105 0 -65 13 -550 -181 -134 -53
-151 -58 -225 -58 -108 0 -184 33 -259 115 -76 81 -99 147 -94 260 5 103 37
177 105 239 l43 40 180 0 180 0 0 388 c0 418 0 421 54 442 11 5 263 9 559 9
442 1 544 -2 572 -13z m-1498 -2350 c90 -89 199 -169 316 -231 l87 -47 0 -154
0 -154 -355 0 -354 0 -5 33 c-3 17 -13 75 -21 127 -9 52 -18 107 -21 121 -5
24 -2 27 37 32 70 9 88 31 164 195 39 84 72 152 74 152 2 0 37 -33 78 -74z
m2018 -78 c76 -164 94 -186 164 -195 39 -5 42 -8 37 -32 -3 -14 -12 -69 -21
-121 -8 -52 -18 -110 -21 -127 l-5 -33 -354 0 -355 0 0 155 0 155 43 21 c132
66 276 170 372 268 33 34 62 61 65 61 3 0 37 -68 75 -152z"/>
<path d="M525 4974 c-153 -24 -167 -28 -187 -55 l-20 -26 71 -434 c38 -239
103 -636 142 -884 40 -247 73 -451 74 -452 1 -3 407 65 410 69 3 3 -17 129
-185 1157 -74 451 -103 608 -116 622 -20 23 -59 23 -189 3z"/>
<path d="M4407 4972 c-14 -15 -40 -154 -117 -623 -168 -1028 -188 -1154 -185
-1157 3 -4 409 -72 410 -69 1 1 34 205 74 452 39 248 104 645 142 884 l71 434
-20 26 c-16 22 -34 29 -113 43 -52 9 -128 20 -169 23 -67 6 -77 5 -93 -13z"/>
</g>
</svg>
