<?xml version="1.0" standalone="no"?>
<!DOCTYPE svg PUBLIC "-//W3C//DTD SVG 20010904//EN"
 "http://www.w3.org/TR/2001/REC-SVG-20010904/DTD/svg10.dtd">
<svg version="1.0" xmlns="http://www.w3.org/2000/svg"
 width="512.000000pt" height="512.000000pt" viewBox="0 0 512.000000 512.000000"
 preserveAspectRatio="xMidYMid meet">

<g transform="translate(0.000000,512.000000) scale(0.100000,-0.100000)"
fill="#000000" stroke="none">
<path d="M2463 5106 c-88 -29 -155 -87 -197 -173 -53 -104 -42 -228 27 -329
36 -52 115 -112 159 -121 l28 -5 0 -148 0 -148 -201 -4 c-197 -3 -201 -3 -220
-27 -26 -31 -25 -83 2 -107 20 -18 52 -19 778 -24 l756 -5 84 -29 c181 -63
331 -197 415 -368 72 -147 71 -135 71 -798 0 -670 2 -646 -78 -810 -33 -69
-59 -103 -132 -176 -75 -76 -105 -99 -182 -137 -165 -82 -107 -78 -1243 -75
l-1005 3 -65 23 c-214 78 -377 227 -455 420 -52 129 -57 192 -52 800 4 624 2
602 80 762 33 69 58 102 132 176 148 149 304 214 512 214 102 0 105 1 134 29
34 35 36 59 9 94 -29 36 -73 42 -211 29 -139 -14 -224 -39 -339 -98 -264 -136
-441 -404 -466 -705 l-7 -79 -119 0 c-130 0 -166 -11 -222 -66 -63 -63 -66
-79 -66 -402 0 -323 2 -337 63 -401 55 -58 96 -71 230 -71 l117 0 0 -39 c0
-69 30 -213 61 -290 84 -209 232 -369 433 -466 142 -69 184 -77 416 -84 l205
-6 3 -87 3 -88 -378 0 c-284 0 -390 -4 -428 -14 -157 -42 -279 -157 -326 -307
-17 -56 -19 -97 -19 -494 l0 -434 26 -20 27 -21 1723 0 c1703 0 1724 0 1744
20 29 29 32 52 28 218 -3 138 -5 153 -24 172 -28 29 -79 29 -107 1 -20 -19
-22 -34 -25 -141 l-4 -120 -193 0 -194 0 -3 398 -3 397 -37 75 c-21 41 -45 86
-55 99 l-17 23 139 -4 c155 -5 189 -14 260 -72 22 -19 54 -58 70 -87 26 -49
30 -66 35 -178 5 -120 6 -124 34 -148 35 -29 70 -25 104 13 19 22 22 36 22
107 0 102 -20 199 -55 268 -35 67 -121 158 -183 192 -97 53 -135 57 -524 57
l-359 0 3 88 3 87 205 6 c232 7 274 15 416 84 282 136 464 402 490 716 l7 79
116 0 c91 0 125 4 156 19 51 23 111 89 124 138 7 23 11 152 11 323 0 311 -3
329 -62 392 -52 55 -96 68 -226 68 l-119 0 -7 79 c-25 301 -201 568 -466 705
-183 95 -266 106 -807 106 l-403 0 0 149 0 149 28 5 c44 9 123 69 159 121 18
27 40 73 49 104 43 148 -39 320 -184 385 -59 25 -171 32 -229 13z m173 -155
c73 -33 111 -106 99 -189 -9 -60 -70 -124 -133 -141 -61 -17 -116 1 -168 53
-33 32 -44 52 -49 88 -12 83 26 156 99 189 52 24 100 24 152 0z m-1836 -2131
l0 -320 -95 0 c-108 0 -140 11 -155 53 -6 18 -10 129 -10 274 0 250 6 292 42
306 7 3 59 6 116 6 l102 1 0 -320z m3751 301 l24 -19 0 -282 0 -282 -24 -19
c-19 -16 -40 -19 -127 -19 l-104 0 0 320 0 320 104 0 c87 0 108 -3 127 -19z
m-1501 -1746 l0 -85 -490 0 -490 0 0 85 0 85 490 0 490 0 0 -85z m-1643 -265
c-34 -40 -72 -124 -86 -188 -7 -33 -11 -187 -11 -412 l0 -360 -195 0 -195 0 0
364 c0 418 2 433 78 517 77 86 139 107 310 108 l124 1 -25 -30z m2039 -2 c60
-32 118 -93 148 -157 20 -44 21 -62 24 -423 l3 -378 -200 0 -201 0 0 295 c0
273 -1 296 -18 313 -18 18 -56 19 -639 26 -390 4 -630 3 -646 -3 -56 -21 -57
-30 -57 -343 l0 -288 -195 0 -196 0 3 387 3 388 30 54 c36 65 99 118 168 143
49 16 105 17 887 15 l835 -2 51 -27z m-376 -718 l0 -240 -530 0 -530 0 0 240
0 240 530 0 530 0 0 -240z"/>
<path d="M1553 3795 c-181 -49 -324 -197 -362 -373 -7 -36 -11 -234 -11 -605
0 -464 2 -562 15 -612 46 -176 184 -314 360 -360 88 -23 1907 -22 2004 0 176
42 320 183 366 360 22 88 22 1142 0 1230 -46 176 -184 314 -360 360 -85 22
-1931 22 -2012 0z m1987 -151 c118 -35 200 -117 235 -236 14 -48 15 -125 13
-609 l-3 -554 -33 -67 c-38 -77 -92 -130 -171 -167 l-56 -26 -965 0 -965 0
-56 26 c-79 37 -133 90 -171 167 l-33 67 0 575 0 575 28 60 c46 99 132 170
234 194 21 5 455 9 964 10 817 1 932 -1 979 -15z"/>
<path d="M1871 3114 c-17 -22 -21 -41 -21 -108 1 -48 6 -87 13 -97 20 -26 55
-40 82 -33 43 11 55 40 55 136 0 75 -3 91 -20 108 -30 30 -83 27 -109 -6z"/>
<path d="M3142 3117 c-19 -20 -22 -35 -22 -111 0 -79 2 -89 25 -111 28 -29 45
-31 84 -10 37 19 41 31 41 124 0 64 -4 83 -21 105 -27 34 -77 36 -107 3z"/>
<path d="M2342 2947 c-29 -31 -28 -72 3 -102 24 -25 26 -25 215 -25 189 0 191
0 215 25 32 31 33 74 2 103 -22 21 -32 22 -218 22 -191 0 -196 0 -217 -23z"/>
</g>
</svg>
