<?xml version="1.0" standalone="no"?>
<!DOCTYPE svg PUBLIC "-//W3C//DTD SVG 20010904//EN"
 "http://www.w3.org/TR/2001/REC-SVG-20010904/DTD/svg10.dtd">
<svg version="1.0" xmlns="http://www.w3.org/2000/svg"
 width="512.000000pt" height="512.000000pt" viewBox="0 0 512.000000 512.000000"
 preserveAspectRatio="xMidYMid meet">

<g transform="translate(0.000000,512.000000) scale(0.100000,-0.100000)"
fill="#000000" stroke="none">
<path d="M2354 5110 c-500 -42 -969 -226 -1374 -538 -109 -85 -347 -323 -432
-432 -436 -566 -618 -1251 -518 -1950 64 -440 239 -850 519 -1210 81 -105 311
-337 410 -415 563 -442 1238 -630 1940 -539 451 58 890 246 1261 538 97 76
320 299 396 396 292 370 476 804 540 1270 23 169 23 491 0 659 -40 295 -111
528 -241 796 -340 699 -985 1205 -1750 1374 -216 48 -535 69 -751 51z m356
-1166 c116 -27 205 -79 301 -174 133 -132 189 -265 189 -447 0 -124 -13 -181
-67 -291 -234 -479 -909 -476 -1152 5 -42 85 -61 170 -61 283 0 185 55 317
189 450 94 94 185 147 296 174 80 19 224 19 305 0z m592 -1535 c123 -26 253
-108 329 -209 105 -138 121 -219 117 -575 -3 -256 -4 -272 -25 -311 -31 -58
-79 -103 -138 -130 l-50 -24 -975 0 -975 0 -50 24 c-62 28 -111 77 -139 136
-19 42 -21 64 -24 310 -4 298 5 369 58 475 72 146 217 263 373 301 70 17 1419
20 1499 3z"/>
</g>
</svg>
